<svg width="47" height="43" viewBox="0 0 47 43" fill="none" xmlns="http://www.w3.org/2000/svg">
<path d="M23.5 1.5C35.7124 1.5 45.5 10.9628 45.5 22.5C45.5 28.3842 43.6077 33.0984 40.3145 36.3408C37.0194 39.5851 32.1751 41.5 26 41.5C19.8006 41.5 13.6178 39.5664 9.01953 36.1992C4.43774 32.8442 1.5 28.1335 1.5 22.5C1.5 10.9628 11.2876 1.5 23.5 1.5Z" fill="white" stroke="black" stroke-width="3"/>
<path d="M33.5 9.99998C28 23.5 16.5 5.48556 17.5 19.4855M7.00004 18.9856C8.00004 32.4856 29.5471 21.5152 20.5 34.0001M30 34C29.9751 23.9379 32.7419 22.7868 40.4741 17.9855" stroke="black" stroke-width="4" stroke-linecap="round"/>
</svg>
